<svg xmlns="http://www.w3.org/2000/svg" version="1.1" xmlns:xlink="http://www.w3.org/1999/xlink" width="512" height="512" x="0" y="0" viewBox="0 0 24 24" style="enable-background:new 0 0 512 512" xml:space="preserve" class=""><g transform="matrix(1.1199999999999992,0,0,1.1199999999999992,-1.4399935770034702,-1.439969487190238)"><path fill="#145638" d="M5 1.25a3.613 3.613 0 0 0-1.106.172A3.705 3.705 0 0 0 1.25 5v5A2.752 2.752 0 0 0 4 12.75h4a.75.75 0 0 0 .75-.75V5A3.755 3.755 0 0 0 5 1.25z" opacity="1" data-original="#145638"></path><path fill="#00aa5b" d="M22.75 6v14A2.748 2.748 0 0 1 20 22.75H10A2.748 2.748 0 0 1 7.25 20V4.25A3 3 0 0 0 4.76 1.3.494.494 0 0 1 5 1.25h13A4.754 4.754 0 0 1 22.75 6z" opacity="1" data-original="#00aa5b" class=""></path><g fill="#fff"><path d="M15 8.75h-3a.75.75 0 0 1 0-1.5h3a.75.75 0 0 1 0 1.5zM18 11.75h-6a.75.75 0 0 1 0-1.5h6a.75.75 0 0 1 0 1.5zM18 14.75h-6a.75.75 0 0 1 0-1.5h6a.75.75 0 0 1 0 1.5zM18 17.75h-6a.75.75 0 0 1 0-1.5h6a.75.75 0 0 1 0 1.5z" fill="#ffffff" opacity="1" data-original="#ffffff" class=""></path></g></g></svg>